<svg>
<symbol xmlns="http://www.w3.org/2000/svg" viewBox="0 0 24 24" id="home">
    <path fill="currentColor" d="M6 21q-.825 0-1.413-.588T4 19v-9q0-.475.213-.9t.587-.7l6-4.5q.275-.2.575-.3T12 3.5q.325 0 .625.1t.575.3l6 4.5q.375.275.588.7T20 10v9q0 .825-.588 1.413T18 21h-4v-7h-4v7H6Z"></path>
  </symbol>
    <symbol xmlns="http://www.w3.org/2000/svg" viewBox="0 0 24 24" id="music-libarary">
    <g fill="currentColor">
      <path d="M11.25 17a.75.75 0 1 0-1.5 0a.75.75 0 0 0 1.5 0Z"></path>
      <path fill-rule="evenodd" d="M8.672 7.542h6.656c3.374 0 5.062 0 6.01.987c.947.987.724 2.511.278 5.56l-.422 2.892c-.35 2.391-.525 3.587-1.422 4.303c-.897.716-2.22.716-4.867.716h-5.81c-2.646 0-3.97 0-4.867-.716c-.897-.716-1.072-1.912-1.422-4.303l-.422-2.892c-.447-3.049-.67-4.573.278-5.56c.948-.987 2.636-.987 6.01-.987ZM12.75 10.5a.75.75 0 0 0-1.5 0v4.378A2.25 2.25 0 1 0 12.75 17v-3.68c.67.543 1.512.93 2.25.93a.75.75 0 1 0 0-1.5c-.305 0-.886-.219-1.416-.69c-.519-.46-.834-1.021-.834-1.56Z" clip-rule="evenodd"></path>
      <path d="M8.51 2h6.98c.232 0 .41 0 .566.015c1.108.109 2.015.775 2.4 1.672H5.543c.384-.897 1.291-1.563 2.399-1.672C8.099 2 8.277 2 8.51 2Z" opacity=".4"></path>
      <path d="M6.31 4.723c-1.39 0-2.53.84-2.911 1.953a2.587 2.587 0 0 0-.023.07c.398-.12.812-.199 1.232-.253c1.08-.138 2.446-.138 4.032-.138h6.892c1.586 0 2.951 0 4.032.138a7.69 7.69 0 0 1 1.232.253a2.453 2.453 0 0 0-.023-.07c-.38-1.114-1.521-1.953-2.912-1.953H6.311Z" opacity=".7"></path>
    </g>
  </symbol>
    <symbol xmlns="http://www.w3.org/2000/svg" viewBox="0 0 24 24" id="radio">
    <path fill="currentColor" d="M4 22q-.825 0-1.413-.588T2 20V8q0-.625.338-1.125t.912-.725l11.825-4.825q.35-.125.688.013t.462.487q.125.35-.013.688t-.487.462L8.3 6H20q.825 0 1.413.588T22 8v12q0 .825-.588 1.413T20 22H4Zm0-11h12v-1q0-.425.288-.713T17 9q.425 0 .713.288T18 10v1h2V8H4v3Zm4 8q1.05 0 1.775-.725T10.5 16.5q0-1.05-.725-1.775T8 14q-1.05 0-1.775.725T5.5 16.5q0 1.05.725 1.775T8 19Z"></path>
  </symbol>
     <symbol xmlns="http://www.w3.org/2000/svg" viewBox="0 0 24 24" id="user">
    <g fill="none">
      <path d="M24 0v24H0V0h24ZM12.593 23.258l-.011.002l-.071.035l-.02.004l-.014-.004l-.071-.035c-.01-.004-.019-.001-.024.005l-.004.01l-.017.428l.005.02l.01.013l.104.074l.015.004l.012-.004l.104-.074l.012-.016l.004-.017l-.017-.427c-.002-.01-.009-.017-.017-.018Zm.265-.113l-.013.002l-.185.093l-.01.01l-.003.011l.018.43l.005.012l.008.007l.201.093c.012.004.023 0 .029-.008l.004-.014l-.034-.614c-.003-.012-.01-.02-.02-.022Zm-.715.002a.023.023 0 0 0-.027.006l-.006.014l-.034.614c0 .012.007.02.017.024l.015-.002l.201-.093l.01-.008l.004-.011l.017-.43l-.003-.012l-.01-.01l-.184-.092Z"></path>
      <path fill="currentColor" d="M12 13c2.396 0 4.575.694 6.178 1.671c.8.49 1.484 1.065 1.978 1.69c.486.616.844 1.352.844 2.139c0 .845-.411 1.511-1.003 1.986c-.56.45-1.299.748-2.084.956c-1.578.417-3.684.558-5.913.558s-4.335-.14-5.913-.558c-.785-.208-1.524-.506-2.084-.956C3.41 20.01 3 19.345 3 18.5c0-.787.358-1.523.844-2.139c.494-.625 1.177-1.2 1.978-1.69C7.425 13.694 9.605 13 12 13Zm0-11a5 5 0 1 1 0 10a5 5 0 0 1 0-10Z"></path>
    </g>
  </symbol>
  <symbol xmlns="http://www.w3.org/2000/svg" viewBox="0 0 24 24" id="video">
    <path fill="currentColor" d="M6.25 2.222c-1.223.194-2.102.558-2.786 1.242c-.684.685-1.048 1.563-1.243 2.786H6.25V2.222ZM2.068 7.75c-.058.981-.067 2.134-.068 3.5h4.25v-3.5H2.069Zm-.068 5c.001 1.366.01 2.519.068 3.5H6.25v-3.5H2Zm.221 5c.195 1.223.56 2.102 1.243 2.785c.684.685 1.563 1.05 2.786 1.243V17.75H2.22Zm5.529 4.181C8.906 22 10.3 22 12 22c1.7 0 3.094 0 4.25-.069V12.75h-8.5v9.181Zm10-.153c1.223-.194 2.101-.558 2.785-1.242c.684-.684 1.049-1.563 1.243-2.786H17.75v4.028Zm4.181-5.528c.058-.981.067-2.134.069-3.5h-4.25v3.5h4.181Zm.069-5c-.002-1.366-.01-2.519-.069-3.5H17.75v3.5H22Zm-.222-5c-.194-1.223-.559-2.101-1.243-2.786c-.684-.684-1.563-1.048-2.785-1.242V6.25h4.028ZM16.25 2.069C15.094 2 13.7 2 12 2c-1.7 0-3.094 0-4.25.069v9.181h8.5V2.069Z"></path>
  </symbol>
 <symbol xmlns="http://www.w3.org/2000/svg" viewBox="0 0 24 24" id="Logout">
    <path fill="currentColor" fill-rule="evenodd" d="M6 2a3 3 0 0 0-3 3v14a3 3 0 0 0 3 3h6a3 3 0 0 0 3-3V5a3 3 0 0 0-3-3H6zm10.293 5.293a1 1 0 0 1 1.414 0l4 4a1 1 0 0 1 0 1.414l-4 4a1 1 0 0 1-1.414-1.414L18.586 13H10a1 1 0 1 1 0-2h8.586l-2.293-2.293a1 1 0 0 1 0-1.414z" clip-rule="evenodd"></path>
  </symbol>
   <symbol xmlns="http://www.w3.org/2000/svg" viewBox="0 0 24 24" id="like">
    <path fill="currentColor" d="m8.962 18.91l.464-.588l-.464.589ZM12 5.5l-.54.52a.75.75 0 0 0 1.08 0L12 5.5Zm3.038 13.41l.465.59l-.465-.59Zm-5.612-.588C7.91 17.127 6.253 15.96 4.938 14.48C3.65 13.028 2.75 11.334 2.75 9.137h-1.5c0 2.666 1.11 4.7 2.567 6.339c1.43 1.61 3.254 2.9 4.68 4.024l.93-1.178ZM2.75 9.137c0-2.15 1.215-3.954 2.874-4.713c1.612-.737 3.778-.541 5.836 1.597l1.08-1.04C10.1 2.444 7.264 2.025 5 3.06C2.786 4.073 1.25 6.425 1.25 9.137h1.5ZM8.497 19.5c.513.404 1.063.834 1.62 1.16c.557.325 1.193.59 1.883.59v-1.5c-.31 0-.674-.12-1.126-.385c-.453-.264-.922-.628-1.448-1.043L8.497 19.5Zm7.006 0c1.426-1.125 3.25-2.413 4.68-4.024c1.457-1.64 2.567-3.673 2.567-6.339h-1.5c0 2.197-.9 3.891-2.188 5.343c-1.315 1.48-2.972 2.647-4.488 3.842l.929 1.178ZM22.75 9.137c0-2.712-1.535-5.064-3.75-6.077c-2.264-1.035-5.098-.616-7.54 1.92l1.08 1.04c2.058-2.137 4.224-2.333 5.836-1.596c1.659.759 2.874 2.562 2.874 4.713h1.5Zm-8.176 9.185c-.526.415-.995.779-1.448 1.043c-.452.264-.816.385-1.126.385v1.5c.69 0 1.326-.265 1.883-.59c.558-.326 1.107-.756 1.62-1.16l-.929-1.178Z"></path>
  </symbol>
  
   <symbol xmlns="http://www.w3.org/2000/svg" viewBox="0 0 24 24" id="play">
    <path fill="currentColor" d="M9.525 18.025q-.5.325-1.012.038T8 17.175V6.825q0-.6.513-.888t1.012.038l8.15 5.175q.45.3.45.85t-.45.85l-8.15 5.175Z"></path>
  </symbol>
 <symbol xmlns="http://www.w3.org/2000/svg" viewBox="0 0 24 24" id="pause">
    <path fill="currentColor" d="M16 19q-.825 0-1.413-.588T14 17V7q0-.825.588-1.413T16 5q.825 0 1.413.588T18 7v10q0 .825-.588 1.413T16 19Zm-8 0q-.825 0-1.413-.588T6 17V7q0-.825.588-1.413T8 5q.825 0 1.413.588T10 7v10q0 .825-.588 1.413T8 19Z"></path>
  </symbol>
    <symbol xmlns="http://www.w3.org/2000/svg" viewBox="0 0 256 256" id="collection">
    <path fill="currentColor" d="M236 56a12 12 0 0 1-12 12h-12v12a12 12 0 0 1-24 0V68h-12a12 12 0 0 1 0-24h12V32a12 12 0 0 1 24 0v12h12a12 12 0 0 1 12 12Zm-16 68v48a40 40 0 1 1-24-36.65V124a12 12 0 0 1 24 0Zm-24 48a16 16 0 1 0-16 16a16 16 0 0 0 16-16ZM92 121.37V204a40 40 0 1 1-24-36.65V64a12 12 0 0 1 9.09-11.64l52-13a12 12 0 0 1 5.82 23.28L92 73.37v23.26l53.09-13.27a12 12 0 0 1 5.82 23.28ZM68 204a16 16 0 1 0-16 16a16 16 0 0 0 16-16Z"></path>
  </symbol>
  <symbol xmlns="http://www.w3.org/2000/svg" viewBox="0 0 24 24" id="prev">
    <path fill="currentColor" d="M7 6c.55 0 1 .45 1 1v10c0 .55-.45 1-1 1s-1-.45-1-1V7c0-.55.45-1 1-1zm3.66 6.82l5.77 4.07c.66.47 1.58-.01 1.58-.82V7.93c0-.81-.91-1.28-1.58-.82l-5.77 4.07a1 1 0 0 0 0 1.64z"></path>
  </symbol>
  <symbol xmlns="http://www.w3.org/2000/svg" viewBox="0 0 24 24" id="next">
    <path fill="currentColor" d="M17.5 18q-.425 0-.713-.288T16.5 17V7q0-.425.288-.713T17.5 6q.425 0 .713.288T18.5 7v10q0 .425-.288.713T17.5 18ZM7.05 16.975q-.5.35-1.025.05t-.525-.9v-8.25q0-.6.525-.888t1.025.038l6.2 4.15q.45.3.45.825t-.45.825l-6.2 4.15Z"></path>
  </symbol>
  <symbol xmlns="http://www.w3.org/2000/svg" viewBox="0 0 512 512" id="volum">
    <path fill="currentColor" d="M264 416.19a23.92 23.92 0 0 1-14.21-4.69l-.66-.51l-91.46-75H88a24 24 0 0 1-24-24V200a24 24 0 0 1 24-24h69.65l91.46-75l.66-.51A24 24 0 0 1 288 119.83v272.34a24 24 0 0 1-24 24ZM352 336a16 16 0 0 1-14.29-23.18c9.49-18.9 14.3-38 14.3-56.82c0-19.36-4.66-37.92-14.25-56.73a16 16 0 0 1 28.5-14.54C378.2 208.16 384 231.47 384 256c0 23.83-6 47.78-17.7 71.18A16 16 0 0 1 352 336Z"></path>
    <path fill="currentColor" d="M400 384a16 16 0 0 1-13.87-24C405 327.05 416 299.45 416 256c0-44.12-10.94-71.52-29.83-103.95A16 16 0 0 1 413.83 136C434.92 172.16 448 204.88 448 256c0 50.36-13.06 83.24-34.12 120a16 16 0 0 1-13.88 8Z"></path>
  </symbol>
   <symbol xmlns="http://www.w3.org/2000/svg" viewBox="0 0 24 24" id="search">
    <path fill="none" stroke="currentColor" stroke-linecap="round" stroke-linejoin="round" d="m21 21l-4.343-4.343m0 0A8 8 0 1 0 5.343 5.343a8 8 0 0 0 11.314 11.314Z"></path>
  </symbol>
   <symbol xmlns="http://www.w3.org/2000/svg" viewBox="0 0 48 48" id="more-vertical">
    <path fill="currentColor" d="M24.002 15.75a3.25 3.25 0 1 1 0-6.5a3.25 3.25 0 0 1 0 6.5Zm0 11.5a3.25 3.25 0 1 1 0-6.5a3.25 3.25 0 0 1 0 6.5Zm-3.25 8.25a3.25 3.25 0 1 0 6.5 0a3.25 3.25 0 0 0-6.5 0Z"></path>
  </symbol>
   <symbol xmlns="http://www.w3.org/2000/svg" viewBox="0 0 20 20" id="bar">
    <path fill="currentColor" fill-rule="evenodd" d="M2 6.75A.75.75 0 0 1 2.75 6h14.5a.75.75 0 0 1 0 1.5H2.75A.75.75 0 0 1 2 6.75Zm0 6.5a.75.75 0 0 1 .75-.75h14.5a.75.75 0 0 1 0 1.5H2.75a.75.75 0 0 1-.75-.75Z" clip-rule="evenodd"></path>
  </symbol>
    <symbol xmlns="http://www.w3.org/2000/svg" viewBox="0 0 24 24" id="TablerArrowsShuffle">
    <g fill="none" stroke="currentColor" stroke-linecap="round" stroke-linejoin="round" stroke-width="2">
      <path d="m18 4l3 3l-3 3m0 10l3-3l-3-3"></path>
      <path d="M3 7h3a5 5 0 0 1 5 5a5 5 0 0 0 5 5h5m0-10h-5a4.978 4.978 0 0 0-3 1m-4 8a4.984 4.984 0 0 1-3 1H3"></path>
    </g>
  </symbol>
    <symbol xmlns="http://www.w3.org/2000/svg" viewBox="0 0 256 256" id="PhArrowsClockwise">
    <path fill="currentColor" d="M197.67 186.37a8 8 0 0 1 0 11.29C196.58 198.73 170.82 224 128 224c-37.39 0-64.53-22.4-80-39.85V208a8 8 0 0 1-16 0v-48a8 8 0 0 1 8-8h48a8 8 0 0 1 0 16H55.44C67.76 183.35 93 208 128 208c36 0 58.14-21.46 58.36-21.68a8 8 0 0 1 11.31.05ZM216 40a8 8 0 0 0-8 8v23.85C192.53 54.4 165.39 32 128 32c-42.82 0-68.58 25.27-69.66 26.34a8 8 0 0 0 11.3 11.34C69.86 69.46 92 48 128 48c35 0 60.24 24.65 72.56 40H168a8 8 0 0 0 0 16h48a8 8 0 0 0 8-8V48a8 8 0 0 0-8-8Z"></path>
  </symbol>
  <symbol xmlns="http://www.w3.org/2000/svg" viewBox="0 0 24 24" id="telegram">
    <path d="M9.78 18.65l.28-4.23l7.68-6.92c.34-.31-.07-.46-.52-.19L7.74 13.3L3.64 12c-.88-.25-.89-.86.2-1.3l15.97-6.16c.73-.33 1.43.18 1.15 1.3l-2.72 12.81c-.19.91-.74 1.13-1.5.71L12.6 16.3l-1.99 1.93c-.23.23-.42.42-.83.42z" fill="currentColor"></path>
  </symbol>
  <symbol xmlns="http://www.w3.org/2000/svg" viewBox="0 0 24 24" id="twitter">
    <path fill="currentColor" d="M22.46 6c-.77.35-1.6.58-2.46.69c.88-.53 1.56-1.37 1.88-2.38c-.83.5-1.75.85-2.72 1.05C18.37 4.5 17.26 4 16 4c-2.35 0-4.27 1.92-4.27 4.29c0 .34.04.67.11.98C8.28 9.09 5.11 7.38 3 4.79c-.37.63-.58 1.37-.58 2.15c0 1.49.75 2.81 1.91 3.56c-.71 0-1.37-.2-1.95-.5v.03c0 2.08 1.48 3.82 3.44 4.21a4.22 4.22 0 0 1-1.93.07a4.28 4.28 0 0 0 4 2.98a8.521 8.521 0 0 1-5.33 1.84c-.34 0-.68-.02-1.02-.06C3.44 20.29 5.7 21 8.12 21C16 21 20.33 14.46 20.33 8.79c0-.19 0-.37-.01-.56c.84-.6 1.56-1.36 2.14-2.23Z"></path>
  </symbol>
  <symbol xmlns="http://www.w3.org/2000/svg" viewBox="0 0 24 24" id="facebook">
    <path fill="currentColor" d="M14 13.5h2.5l1-4H14v-2c0-1.03 0-2 2-2h1.5V2.14c-.326-.043-1.557-.14-2.857-.14C11.928 2 10 3.657 10 6.7v2.8H7v4h3V22h4v-8.5Z"></path>
  </symbol>
   <symbol xmlns="http://www.w3.org/2000/svg" viewBox="0 0 24 24" id="download">
    <path fill="currentColor" d="M11 16.175V5q0-.425.288-.713T12 4q.425 0 .713.288T13 5v11.175l4.9-4.9q.3-.3.7-.288t.7.313q.275.3.287.7t-.287.7l-6.6 6.6q-.15.15-.325.213t-.375.062q-.2 0-.375-.063T11.3 19.3l-6.6-6.6q-.275-.275-.275-.687T4.7 11.3q.3-.3.713-.3t.712.3L11 16.175Z"></path>
  </symbol>
</svg>